<svg width="42" height="41" viewBox="0 0 42 41" fill="none" xmlns="http://www.w3.org/2000/svg">
<g clip-path="url(#clip0_7_39)">
<path fill-rule="evenodd" clip-rule="evenodd" d="M20.9374 0C9.35957 0 0 9.39583 0 21.0198C0 30.3114 5.997 38.1765 14.3164 40.9603C15.3566 41.1695 15.7376 40.508 15.7376 39.9515C15.7376 39.4642 15.7033 37.7939 15.7033 36.0535C9.879 37.3066 8.66614 33.5478 8.66614 33.5478C7.73014 31.1117 6.34329 30.4856 6.34329 30.4856C4.437 29.198 6.48214 29.198 6.48214 29.198C8.59671 29.3372 9.70629 31.3556 9.70629 31.3556C11.5779 34.557 14.5937 33.6525 15.807 33.0955C15.9801 31.7383 16.5351 30.7987 17.1244 30.2768C12.4791 29.7895 7.59171 27.9799 7.59171 19.9059C7.59171 17.6091 8.42314 15.7299 9.74057 14.2684C9.53271 13.7465 8.80457 11.5885 9.94886 8.70011C9.94886 8.70011 11.7167 8.1432 15.7029 10.8577C17.4095 10.3976 19.1695 10.1636 20.9374 10.1616C22.7053 10.1616 24.5074 10.4055 26.1716 10.8577C30.1581 8.1432 31.926 8.70011 31.926 8.70011C33.0703 11.5885 32.3417 13.7465 32.1339 14.2684C33.486 15.7299 34.2831 17.6091 34.2831 19.9059C34.2831 27.9799 29.3957 29.7545 24.7157 30.2768C25.4786 30.9379 26.1369 32.1905 26.1369 34.1744C26.1369 36.9931 26.1026 39.2554 26.1026 39.9511C26.1026 40.508 26.484 41.1695 27.5237 40.9607C35.8431 38.1761 41.8401 30.3114 41.8401 21.0198C41.8744 9.39583 32.4806 0 20.9374 0Z" fill="white"/>
</g>
<defs>
<clipPath id="clip0_7_39">
<rect width="42" height="41" fill="white"/>
</clipPath>
</defs>
</svg>
